<svg id="Layer_1" enable-background="new 0 0 512.256 512.256" height="512" viewBox="0 0 512.256 512.256" width="512" xmlns="http://www.w3.org/2000/svg"><path d="m512.256 315.484v-118.713h-52.036c-4.334-14.931-10.3-29.312-17.824-42.969l36.813-36.813-83.942-83.942-36.813 36.813c-13.657-7.524-28.038-13.489-42.97-17.823v-52.037h-118.713v52.037c-14.931 4.333-29.312 10.299-42.969 17.823l-36.813-36.813-83.942 83.942 36.813 36.813c-7.524 13.657-13.489 28.038-17.823 42.969h-52.037v118.713h52.037c4.334 14.931 10.299 29.313 17.823 42.969l-36.813 36.813 83.942 83.942 36.813-36.813c13.657 7.524 28.038 13.489 42.969 17.823v52.037h118.713v-52.037c14.932-4.334 29.313-10.299 42.97-17.823l36.813 36.813 83.942-83.942-36.813-36.813c7.524-13.657 13.49-28.038 17.824-42.969z" fill="#2d69ad"/><path d="m512.256 315.484v-118.713h-52.036c-4.334-14.931-10.3-29.312-17.824-42.969l36.813-36.813-83.942-83.942-36.813 36.813c-13.657-7.524-28.038-13.489-42.97-17.823v-52.037h-59.356v512.256h59.356v-52.037c14.932-4.334 29.313-10.299 42.97-17.823l36.813 36.813 83.942-83.942-36.813-36.813c7.524-13.657 13.49-28.038 17.824-42.969h52.036z" fill="#1b3359"/><circle cx="256.128" cy="256.128" fill="#e0f4ff" r="145.97"/><path d="m256.128 110.158v291.939c80.488 0 145.97-65.482 145.97-145.97s-65.482-145.969-145.97-145.969z" fill="#b7e3ff"/><path d="m325.156 205.918-11.098 11.097c-5.188 5.188-13.629 5.188-18.818 0-5.188-5.188-5.188-13.63 0-18.817l11.098-11.097-21.213-21.214-11.098 11.098c-13.158 13.158-16.059 32.744-8.71 48.741l-39.591 39.591c-15.997-7.349-35.584-4.447-48.742 8.71l-11.097 11.098 21.214 21.213 11.097-11.098c2.513-2.513 5.855-3.897 9.409-3.897 3.555 0 6.896 1.384 9.41 3.897 2.513 2.513 3.897 5.855 3.897 9.409s-1.384 6.896-3.897 9.408l-11.098 11.097 21.213 21.214 11.098-11.098c13.158-13.157 16.059-32.744 8.71-48.741l39.591-39.592c5.733 2.633 11.926 3.953 18.119 3.953 11.09 0 22.18-4.221 30.622-12.664l11.098-11.098z" fill="#fcbf29"/><path d="m325.156 205.918-11.098 11.097c-5.188 5.188-13.629 5.188-18.818 0-5.188-5.188-5.188-13.63 0-18.817l11.098-11.097-21.213-21.214-11.098 11.098c-13.158 13.158-16.059 32.744-8.71 48.741l-9.189 9.189v42.426l30.402-30.402c5.733 2.633 11.926 3.953 18.119 3.953 11.09 0 22.18-4.221 30.622-12.664l11.098-11.098z" fill="#ffa918"/></svg>