<?xml version="1.0" encoding="iso-8859-1"?>
<!-- Generator: Adobe Illustrator 19.0.0, SVG Export Plug-In . SVG Version: 6.00 Build 0)  -->
<svg version="1.1" id="Capa_1" xmlns="http://www.w3.org/2000/svg" xmlns:xlink="http://www.w3.org/1999/xlink" x="0px" y="0px"
	 viewBox="0 0 503.926 503.926" style="enable-background:new 0 0 503.926 503.926;" xml:space="preserve">
<circle style="fill:#FCBD5E;" cx="251.963" cy="248.123" r="218.191"/>
<path style="fill:#FFFFFF;" d="M251.963,7.877c-127.606,0-231.582,103.975-231.582,231.582S123.569,470.252,251.175,471.04v24.418
	l70.105-40.96l-70.105-40.96v24.418c-110.277,0.788-199.286-88.221-199.286-198.498S141.686,39.385,251.963,39.385
	s200.074,89.797,200.074,200.074h32.295C483.545,111.852,379.569,7.877,251.963,7.877z"/>
<g>
	<path style="fill:#183651;" d="M246.449,503.335c-2.363-1.575-3.938-3.938-3.938-7.089v-17.329
		C114.905,474.191,12.505,368.64,12.505,239.458C12.505,107.126,120.418,0,251.963,0c132.332,0,239.458,107.914,239.458,239.458
		c0,4.726-3.151,7.877-7.877,7.877h-32.295c-4.726,0-7.877-3.151-7.877-7.877c0-105.551-85.858-192.197-192.197-192.197
		S59.766,133.908,59.766,239.458c0,102.4,81.132,186.683,182.745,191.409v-16.542c0-3.151,1.575-5.514,3.938-7.089
		c2.363-1.575,5.514-1.575,7.877,0l70.105,40.96c2.363,1.575,3.938,3.938,3.938,7.089c0,3.151-1.575,5.514-3.938,7.089
		l-70.105,40.96C251.963,504.123,248.812,504.123,246.449,503.335z M251.963,15.754c-123.668,0-223.705,100.825-223.705,223.705
		s100.037,222.917,222.917,223.705c3.938,0,7.877,3.151,7.877,7.877v11.028l46.474-26.782l-46.474-26.782v11.028
		c0,2.363-0.788,3.938-2.363,5.514c-1.575,1.575-3.938,2.363-5.514,2.363C136.96,446.622,44.012,353.674,44.012,239.458
		S137.748,32.295,251.963,32.295c111.852,0,203.225,89.009,207.163,200.074h16.542C471.729,111.852,372.48,15.754,251.963,15.754z"
		/>
	<path style="fill:#183651;" d="M161.378,374.942c-2.363-1.575-4.726-3.151-7.089-4.726l9.452-12.603
		c2.363,1.575,3.938,3.151,6.302,3.938L161.378,374.942z"/>
	<path style="fill:#183651;" d="M141.686,359.188c-3.938-3.938-7.877-7.877-11.815-11.815l11.815-11.028
		c3.151,3.938,7.089,7.089,11.028,11.028L141.686,359.188z M118.843,334.769c-3.151-4.726-6.302-9.452-9.452-14.178l13.391-7.877
		c2.363,4.726,5.514,8.665,8.665,12.603L118.843,334.769z M101.514,305.625c-2.363-4.726-4.726-10.24-6.302-15.754l14.966-4.726
		c1.575,4.726,3.151,9.452,5.514,14.178L101.514,305.625z M91.274,273.329c-1.575-5.514-2.363-11.028-3.151-16.542l15.754-1.575
		c0.788,4.726,1.575,10.24,2.363,14.966L91.274,273.329z M87.335,240.246v-2.363c0-4.726,0-9.452,0.788-14.178l15.754,1.575
		c0,3.938-0.788,8.665-0.788,12.603v2.363L87.335,240.246z M395.323,215.04c-0.788-4.726-1.575-10.24-3.151-14.966l14.966-3.938
		c1.575,5.514,2.363,11.028,3.151,16.542L395.323,215.04z M105.452,209.526l-15.754-3.151c0.788-5.514,2.363-11.028,3.938-16.542
		l14.966,4.726C107.815,200.074,106.24,204.8,105.452,209.526z M387.446,185.108c-1.575-4.726-3.938-9.452-6.302-14.178
		l14.178-7.089c2.363,4.726,4.726,10.24,7.089,15.754L387.446,185.108z M114.117,180.382l-14.178-6.302
		c2.363-5.514,4.726-10.24,7.089-14.966l14.178,7.877C118.055,171.717,116.48,175.655,114.117,180.382z M374.055,158.326
		c-2.363-3.938-5.514-8.665-8.665-12.603l12.603-10.24c3.151,4.726,7.089,8.665,9.452,13.391L374.055,158.326z M129.083,153.6
		l-12.603-8.665c3.151-4.726,6.302-9.452,10.24-13.391l11.815,10.24C134.597,145.723,131.446,149.662,129.083,153.6z
		 M355.151,134.695c-3.938-3.938-7.089-7.089-11.028-10.24l10.24-11.815c3.938,3.938,8.665,7.089,12.603,11.028L355.151,134.695z
		 M148.775,130.757l-11.028-11.028c3.938-3.938,8.665-7.877,12.603-11.028l9.452,12.603
		C155.865,124.455,152.714,127.606,148.775,130.757z M331.52,115.003c-3.938-3.151-8.665-5.514-13.391-7.877l7.089-14.178
		c4.726,2.363,10.24,5.514,14.178,8.665L331.52,115.003z M172.406,112.64l-8.665-13.391c4.726-3.151,9.452-5.514,14.966-7.877
		l7.089,14.178C181.858,107.126,177.132,109.489,172.406,112.64z M304.738,100.825c-4.726-1.575-9.452-3.151-14.178-4.726
		l3.938-14.966c5.514,1.575,11.028,3.151,15.754,5.514L304.738,100.825z M199.975,99.249l-5.514-14.966
		c5.514-1.575,11.028-3.151,15.754-4.726l3.938,14.966C209.428,96.098,204.702,97.674,199.975,99.249z M275.594,92.948
		c-4.726-0.788-10.24-1.575-14.966-1.575l0.788-15.754c5.514,0,11.028,0.788,16.542,2.363L275.594,92.948z M229.908,92.16
		l-2.363-15.754c5.514-0.788,11.028-1.575,16.542-1.575l0.788,15.754C240.148,90.585,234.634,91.372,229.908,92.16z"/>
	<path style="fill:#183651;" d="M412.652,237.883h-15.754c0-2.363,0-4.726,0-7.089l15.754-0.788
		C412.652,232.369,412.652,234.732,412.652,237.883z"/>
	<path style="fill:#183651;" d="M251.963,256c-2.363,0-3.938-0.788-5.514-2.363l-47.262-47.262c-3.151-3.151-3.151-7.877,0-11.028
		s7.877-3.151,11.028,0l41.748,41.748l68.529-68.529c3.151-3.151,7.877-3.151,11.028,0c3.151,3.151,3.151,7.877,0,11.028
		l-74.043,74.043C255.902,255.212,254.326,256,251.963,256z"/>
</g>
<circle style="fill:#FFFFFF;" cx="251.963" cy="248.123" r="21.268"/>
<path style="fill:#183651;" d="M251.963,277.268c-15.754,0-29.145-13.391-29.145-29.145s13.391-29.145,29.145-29.145
	s29.145,13.391,29.145,29.145S267.717,277.268,251.963,277.268z M251.963,234.732c-7.089,0-13.391,6.302-13.391,13.391
	s6.302,13.391,13.391,13.391c7.089,0,13.391-6.302,13.391-13.391C265.354,240.246,259.052,234.732,251.963,234.732z"/>
<circle style="fill:#FFFFFF;" cx="365.391" cy="329.255" r="55.926"/>
<g>
	<path style="fill:#173651;" d="M359.877,344.222v7.877h-31.508c0-3.151,1.575-6.302,3.151-8.665
		c1.575-3.151,4.726-6.302,10.24-11.028c3.938-3.938,6.302-6.302,7.089-7.877c1.575-1.575,1.575-3.938,1.575-5.514
		c0-1.575-0.788-3.151-1.575-4.726c-0.788-0.788-2.363-1.575-4.726-1.575c-1.575,0-3.151,0.788-4.726,1.575
		c-0.788,0.788-1.575,3.151-1.575,5.514l-8.665-0.788c0.788-4.726,2.363-8.665,4.726-10.24c3.151-2.363,6.302-3.151,10.24-3.151
		c4.726,0,7.877,1.575,11.028,3.938c2.363,2.363,3.938,5.514,3.938,9.452c0,2.363,0,3.938-0.788,6.302
		c-0.788,1.575-1.575,3.938-3.938,5.514c-0.788,1.575-3.151,3.151-5.514,5.514c-3.151,2.363-4.726,3.938-5.514,4.726
		c-0.788,1.575-0.788,2.363-1.575,3.151H359.877z"/>
	<path style="fill:#173651;" d="M388.234,352.886v-9.452h-18.905v-7.877l20.48-29.145h7.877v29.145h5.514v7.877h-5.514v9.452
		H388.234z M388.234,335.557v-15.754l-11.028,15.754H388.234z"/>
</g>
<g>
</g>
<g>
</g>
<g>
</g>
<g>
</g>
<g>
</g>
<g>
</g>
<g>
</g>
<g>
</g>
<g>
</g>
<g>
</g>
<g>
</g>
<g>
</g>
<g>
</g>
<g>
</g>
<g>
</g>
</svg>
